<svg width="24" height="25" viewBox="0 0 24 25" fill="none" xmlns="http://www.w3.org/2000/svg">
<path d="M7.41675 12.4482C7.41675 11.5084 7.63739 10.7047 8.07868 10.0374C8.51997 9.37 9.12352 8.86613 9.88933 8.52558C10.5901 8.21229 11.4534 7.9877 12.4789 7.85126C12.8292 7.81048 13.4003 7.75597 14.1921 7.68775V7.34044C14.1921 6.46878 14.1013 5.88316 13.9195 5.5834C13.6469 5.17464 13.2187 4.97053 12.6345 4.97053H12.4789C12.0505 5.01131 11.6805 5.15434 11.369 5.39941C11.0576 5.64467 10.8563 5.98503 10.7655 6.42105C10.7135 6.69337 10.5839 6.84993 10.3761 6.89089L8.13707 6.60485C7.91642 6.55035 7.8061 6.42781 7.8061 6.23706C7.8061 6.19627 7.81255 6.14854 7.82545 6.09422C8.04609 4.88201 8.58794 3.9831 9.45118 3.39729C10.3142 2.81186 11.3235 2.48484 12.4789 2.41663H12.9656C14.445 2.41663 15.6003 2.81844 16.4313 3.62207C16.5613 3.75887 16.6819 3.90555 16.7914 4.06119C16.9013 4.21775 16.9892 4.35748 17.0538 4.48001C17.1188 4.60255 17.1774 4.77977 17.2292 5.01113C17.2813 5.24286 17.32 5.40289 17.3463 5.49122C17.3721 5.57974 17.3916 5.7705 17.4045 6.06349C17.4174 6.3563 17.4238 6.52987 17.4238 6.58437V11.5287C17.4238 11.8827 17.4725 12.2063 17.5699 12.4991C17.6673 12.7921 17.7616 13.0031 17.8521 13.1324C17.9429 13.2618 18.0924 13.4697 18.3 13.7554C18.3779 13.8783 18.4167 13.9873 18.4167 14.0826C18.4167 14.1916 18.365 14.2865 18.2608 14.3684C17.1837 15.3493 16.5997 15.8806 16.5087 15.9623C16.353 16.0849 16.1648 16.0984 15.944 16.0031C15.7626 15.8394 15.6036 15.6831 15.4671 15.5331C15.331 15.3835 15.2336 15.2745 15.175 15.2063C15.1168 15.1384 15.0225 15.0054 14.8929 14.8079C14.7632 14.6104 14.6719 14.4774 14.6203 14.4096C13.8935 15.2405 13.1797 15.758 12.4789 15.9623C12.0374 16.0984 11.4922 16.1666 10.8434 16.1666C9.84384 16.1666 9.02296 15.8429 8.38054 15.196C7.73796 14.5489 7.41675 13.633 7.41675 12.4482ZM10.7655 12.0395C10.7655 12.5708 10.8922 12.9964 11.1451 13.3164C11.3983 13.6365 11.7388 13.7965 12.1672 13.7965C12.2063 13.7965 12.2613 13.7898 12.3328 13.7762C12.4039 13.7623 12.4527 13.7556 12.4789 13.7556C13.0238 13.606 13.4456 13.2383 13.7442 12.6525C13.8871 12.3937 13.9941 12.1112 14.0655 11.8047C14.137 11.4983 14.1759 11.2496 14.1823 11.0588C14.1888 10.8682 14.1923 10.555 14.1923 10.1191V9.6083C13.4393 9.6083 12.8684 9.66281 12.479 9.77181C11.3364 10.1122 10.7655 10.8681 10.7655 12.0395Z" fill="black"/>
<path d="M18.9 18.0172C18.9269 17.9582 18.9668 17.8995 19.0203 17.8405C19.3535 17.5905 19.6735 17.4217 19.9802 17.3334C20.4868 17.1865 20.9803 17.1055 21.4601 17.0907C21.5937 17.0757 21.7202 17.0834 21.8402 17.1127C22.4403 17.1713 22.8 17.2819 22.9203 17.4436C22.9735 17.5319 23 17.6642 23 17.8405V17.9951C23 18.5095 22.8734 19.1163 22.6203 19.8147C22.3667 20.5131 22.0135 21.0759 21.56 21.5024C21.4936 21.561 21.4334 21.5902 21.3802 21.5902C21.3534 21.5902 21.3267 21.5829 21.3002 21.5683C21.2202 21.5243 21.2001 21.4433 21.2401 21.3256C21.7335 20.0463 21.98 19.1567 21.98 18.6564C21.98 18.4949 21.9535 18.3772 21.9003 18.3035C21.7668 18.1272 21.3937 18.0389 20.7803 18.0389C20.5533 18.0389 20.2869 18.0535 19.9802 18.083C19.647 18.1274 19.3403 18.1712 19.0601 18.2157C18.9801 18.2157 18.9269 18.2007 18.8999 18.1712C18.8734 18.142 18.8666 18.1126 18.88 18.083C18.88 18.0686 18.8866 18.0464 18.9 18.0172ZM1.03993 17.6424C1.10671 17.5247 1.21323 17.5174 1.36005 17.6201C4.69337 19.7525 8.32014 20.8188 12.24 20.8188C14.8536 20.8188 17.4335 20.2819 19.9802 19.2083C20.0466 19.1791 20.1434 19.135 20.27 19.076C20.397 19.0173 20.4868 18.9731 20.54 18.9437C20.74 18.8554 20.8967 18.8997 21.01 19.076C21.1237 19.2527 21.087 19.4142 20.9002 19.5611C20.66 19.7525 20.3533 19.973 19.9802 20.223C18.8336 20.9732 17.5533 21.5539 16.14 21.9658C14.7268 22.3777 13.3466 22.5833 12.0001 22.5833C9.92003 22.5833 7.9533 22.1826 6.10007 21.3811C4.24667 20.5796 2.58663 19.4508 1.11996 17.9953C1.03993 17.9216 1 17.848 1 17.7745C1 17.7303 1.01325 17.6863 1.03993 17.6424Z" fill="#FF9900"/>
</svg>
