<svg width="24" height="25" viewBox="0 0 24 25" fill="none" xmlns="http://www.w3.org/2000/svg">
<path d="M22.0001 12.7416C22.0001 12.0661 21.9334 11.3688 21.8223 10.7151H12.1973V14.572H17.71C17.4877 15.8141 16.7541 16.9036 15.6649 17.6009L18.9548 20.1068C20.8887 18.3418 22.0001 15.7705 22.0001 12.7416Z" fill="#4280EF"/>
<path d="M12.1972 22.5038C14.9536 22.5038 17.2654 21.6104 18.9547 20.085L15.6649 17.6009C14.7535 18.211 13.5754 18.5597 12.1972 18.5597C9.5298 18.5597 7.28471 16.7947 6.46225 14.4413L3.0835 16.9908C4.81733 20.3683 8.32945 22.5038 12.1972 22.5038Z" fill="#34A353"/>
<path d="M6.4624 14.4196C6.04005 13.1775 6.04005 11.8265 6.4624 10.5845L3.08365 8.01318C1.63878 10.846 1.63878 14.1799 3.08365 16.9909L6.4624 14.4196Z" fill="#F6B704"/>
<path d="M12.1972 6.46601C13.6421 6.44422 15.0647 6.98899 16.1095 7.96956L19.0214 5.09321C17.1764 3.39355 14.7313 2.47835 12.1972 2.50014C8.32945 2.50014 4.81733 4.63561 3.0835 8.01314L6.46225 10.5844C7.28471 8.20926 9.5298 6.46601 12.1972 6.46601Z" fill="#E54335"/>
</svg>
