<svg width="24" height="25" viewBox="0 0 24 25" fill="none" xmlns="http://www.w3.org/2000/svg">
<path d="M4.98292 7.69704C6.19132 7.69704 7.17092 6.71744 7.17092 5.50904C7.17092 4.30065 6.19132 3.32104 4.98292 3.32104C3.77452 3.32104 2.79492 4.30065 2.79492 5.50904C2.79492 6.71744 3.77452 7.69704 4.98292 7.69704Z" fill="#0187E8"/>
<path d="M9.23697 9.35505V21.4941H13.006V15.4911C13.006 13.9071 13.304 12.3731 15.268 12.3731C17.205 12.3731 17.229 14.1841 17.229 15.5911V21.4951H21V14.8381C21 11.5681 20.296 9.05505 16.474 9.05505C14.639 9.05505 13.409 10.0621 12.906 11.0151H12.855V9.35505H9.23697ZM3.09497 9.35505H6.86997V21.4941H3.09497V9.35505Z" fill="#0187E8"/>
</svg>
