<svg width="20" height="17" viewBox="0 0 20 17" fill="none" xmlns="http://www.w3.org/2000/svg">
<path d="M17.633 4.49704C17.646 4.67204 17.646 4.84604 17.646 5.02004C17.646 10.345 13.593 16.481 6.186 16.481C3.904 16.481 1.784 15.82 0 14.672C0.324 14.709 0.636 14.722 0.973 14.722C2.856 14.722 4.589 14.086 5.974 13.001C4.203 12.964 2.719 11.804 2.207 10.208C2.456 10.245 2.706 10.27 2.968 10.27C3.329 10.27 3.692 10.22 4.029 10.133C2.182 9.75904 0.799 8.13804 0.799 6.18004V6.13004C1.336 6.42904 1.959 6.61604 2.619 6.64104C1.534 5.91904 0.823 4.68404 0.823 3.28704C0.823 2.53904 1.022 1.85304 1.371 1.25504C3.354 3.69804 6.335 5.29504 9.677 5.47004C9.615 5.17004 9.577 4.85904 9.577 4.54704C9.577 2.32704 11.373 0.519043 13.605 0.519043C14.765 0.519043 15.812 1.00504 16.548 1.79104C17.458 1.61604 18.33 1.27904 19.104 0.818043C18.805 1.75304 18.168 2.53904 17.333 3.03804C18.144 2.95004 18.93 2.72604 19.652 2.41404C19.104 3.21204 18.419 3.92304 17.633 4.49704Z" fill="#1DA1F2"/>
</svg>
