<svg width="22" height="19" viewBox="0 0 22 19" fill="none" xmlns="http://www.w3.org/2000/svg">
<path d="M17.3579 0.613511C17.2545 0.573483 16.7353 0.3923 16.2315 0.592444C14.2691 1.4204 12.355 2.34528 10.4124 3.21327C9.67977 3.53982 8.96256 3.90007 8.21894 4.20134C7.38953 4.53843 6.50291 4.66905 5.6031 4.67958C4.94968 4.6859 4.29847 4.69011 3.64726 4.67958C2.42624 4.65641 1.50222 5.17046 0.800407 6.09322C0.545203 6.43031 0.358199 6.79478 0.223997 7.18032C0.00839262 7.8292 -0.180811 8.94158 0.305398 10.3152C0.569403 10.9683 0.985211 11.5308 1.58142 11.9795C1.63862 12.0217 1.69142 12.0617 1.69802 12.1418C1.75302 12.8391 1.93563 13.5175 2.06323 14.2043C2.27223 15.3441 2.50544 16.4796 2.72544 17.6173C2.81124 18.0681 3.07745 18.3525 3.54386 18.4663C3.56146 18.4705 3.57906 18.4874 3.59446 18.5H3.89586C4.32047 18.3778 4.76268 18.3336 5.19609 18.2493C5.6031 18.1713 6.0123 18.1102 6.41931 18.0323C7.04192 17.9143 7.37853 17.4108 7.26193 16.8083C7.11452 16.0351 6.80652 15.3251 6.33351 14.6846C5.9177 14.12 5.6537 13.4985 5.50189 12.8265C5.46449 12.6621 5.49969 12.6074 5.6823 12.6137C6.79772 12.66 7.84934 12.9023 8.86136 13.3742C11.2726 14.4971 13.7036 15.5842 16.1259 16.684C16.9201 17.0442 17.7671 16.6966 18.0421 15.8939C18.7725 13.7661 19.2191 11.5877 19.2983 9.34608C19.3952 6.58621 18.9177 3.91482 18.0025 1.30664C17.8859 0.973769 17.6593 0.752558 17.3579 0.613511ZM7.81634 11.2211C7.51933 11.1537 7.22013 11.101 6.91652 11.061C7.52593 9.20914 7.18273 7.24141 6.92532 6.23648C7.22673 6.19224 7.52813 6.13536 7.82734 6.06373C8.55555 8.81517 8.14414 10.4606 7.81634 11.2211ZM17.5625 9.50198C17.4745 11.3117 17.1247 13.0772 16.5879 14.811C16.5285 15.0007 16.4691 15.007 16.2975 14.929C13.8928 13.8293 11.4882 12.7317 9.07696 11.6446C9.96798 9.33976 9.40257 6.79899 9.06156 5.66976C9.58517 5.45487 10.0868 5.19363 10.6016 4.96189C12.5046 4.10443 14.4011 3.23644 16.2975 2.37056C16.4163 2.31789 16.5131 2.24837 16.5747 2.44851C17.2897 4.75121 17.6791 7.09605 17.5625 9.50198ZM21.9516 8.09676C21.78 7.20981 21.3026 6.51247 20.526 6.00474C20.4116 5.931 20.2994 5.84041 20.1278 5.81302C20.3852 7.71122 20.3896 9.59468 20.1278 11.4697C20.2004 11.495 20.2334 11.4613 20.2686 11.4423C20.9748 11.0631 21.4808 10.5153 21.7844 9.79482C21.8834 9.55886 21.912 9.30605 22 9.06798V8.20421C21.9516 8.17893 21.9604 8.13468 21.9516 8.09676Z" fill="#414357"/>
</svg>
