<svg width="24" height="25" viewBox="0 0 24 25" fill="none" xmlns="http://www.w3.org/2000/svg">
<rect x="8" y="8.5" width="8" height="8" fill="white"/>
<path d="M21.5931 7.70301C21.3631 6.84501 20.6881 6.16801 19.8311 5.93701C18.2651 5.50701 12.0001 5.50001 12.0001 5.50001C12.0001 5.50001 5.73609 5.49301 4.16909 5.90401C3.32909 6.13301 2.63509 6.82501 2.40309 7.68201C1.99009 9.24801 1.98609 12.496 1.98609 12.496C1.98609 12.496 1.98209 15.76 2.39209 17.31C2.62209 18.167 3.29709 18.844 4.15509 19.075C5.73709 19.505 11.9851 19.512 11.9851 19.512C11.9851 19.512 18.2501 19.519 19.8161 19.109C20.6721 18.879 21.3501 18.203 21.5831 17.346C21.9971 15.781 22.0001 12.534 22.0001 12.534C22.0001 12.534 22.0201 9.26901 21.5931 7.70301ZM9.99609 15.505L10.0011 9.50501L15.2081 12.51L9.99609 15.505Z" fill="#FF0000"/>
</svg>
